<?xml version="1.0" encoding="UTF-8"?>
<svg version="1.1" xmlns="http://www.w3.org/2000/svg" width="1000" height="420">
<path d="M0 0 C330 0 660 0 1000 0 C1000 138.6 1000 277.2 1000 420 C670 420 340 420 0 420 C0 281.4 0 142.8 0 0 Z " fill="#FEFEFE" transform="translate(0,0)"/>
<path d="M0 0 C6.88257288 0.35599515 12.45103218 2.13713466 18.8828125 4.55078125 C23.55777784 6.25233961 28.33211138 7.55142977 33.125 8.875 C54.06955155 14.74790772 73.85480435 20.67489743 88.4375 37.875 C94.95958496 50.91916993 94.70930977 65.81301961 90.265625 79.47265625 C89.84796875 80.63667969 89.4303125 81.80070312 89 83 C88.77505859 83.6379248 88.55011719 84.27584961 88.31835938 84.93310547 C85.35991808 93.2807184 81.99860975 101.41311917 78.44921875 109.52734375 C76.44556327 114.32855593 74.75126523 119.21210935 73.078125 124.13671875 C72 127 72 127 70 130 C68.94555413 133.23591081 68.02711392 136.49963922 67.09765625 139.7734375 C66 143 66 143 64.55859375 145.3515625 C62.79087763 148.35535079 61.84299349 151.29127323 60.79052734 154.59960938 C59.48678378 158.5583514 57.88727392 162.39287717 56.3125 166.25 C53.00004416 174.43759591 49.81068558 182.66540518 46.70239258 190.93261719 C45.17860105 194.97127773 43.60347922 198.96241496 41.87768555 202.92016602 C39.66153701 208.17172913 37.63732483 213.50385805 35.5625 218.8125 C32.70416638 226.11455877 29.84248043 233.41444651 26.92260742 240.69213867 C25.38572719 244.53657604 23.87817871 248.39228474 22.375 252.25 C22.0759375 253.013125 21.776875 253.77625 21.46875 254.5625 C19.86575532 258.67638016 18.35257788 262.79495591 17 267 C8.55533458 265.67831743 0.21554606 264.05352047 -8.125 262.1875 C-9.89822632 261.79328857 -9.89822632 261.79328857 -11.70727539 261.39111328 C-19.06945231 259.72989899 -26.32791554 257.85882333 -33.57373047 255.75463867 C-39.73594165 253.9971415 -45.95195845 252.72969134 -52.24194336 251.52124023 C-58.69029616 250.27922897 -65.09769766 248.89825141 -71.5 247.4375 C-72.80662598 247.14069336 -72.80662598 247.14069336 -74.13964844 246.83789062 C-78.57804765 245.81946203 -83.00027023 244.75307023 -87.4140625 243.6328125 C-92.7580166 242.28737629 -98.12042434 241.03694263 -103.4921875 239.80859375 C-104.33360291 239.61605515 -105.17501831 239.42351654 -106.04193115 239.22514343 C-109.54213871 238.42514739 -113.04265673 237.62655126 -116.54394531 236.83129883 C-119.1314684 236.24303046 -121.71812444 235.65106685 -124.3046875 235.05859375 C-125.48138504 234.79289833 -125.48138504 234.79289833 -126.68185425 234.52183533 C-130.88251604 233.55693406 -134.91480834 232.38825457 -139 231 C-141.66694311 230.50268069 -144.32158879 230.04536473 -147 229.625 C-153.81450812 228.49602594 -160.26783536 226.90530907 -166.87890625 224.88671875 C-169.57330756 224.12122551 -172.11010534 223.64104167 -174.875 223.25 C-187.70709836 220.81486582 -200.67039325 212.63080143 -208.08984375 202.0078125 C-217.50491063 186.56633266 -215.60715974 171.9038359 -211.63208008 154.8972168 C-210.18651435 148.9541808 -208.48952247 143.25043059 -206.06640625 137.625 C-204.7086448 134.28281796 -203.60937483 130.86766505 -202.5 127.4375 C-200.92341377 122.6014009 -199.20830499 117.92803152 -197.03125 113.328125 C-195.22697949 109.25484763 -193.8144507 105.0237341 -192.34375 100.8203125 C-190.92925438 97.85151645 -189.77672448 96.68250678 -187 95 C-185.68808003 101.95214281 -185.88941942 108.88444903 -185.9375 115.9375 C-185.94201172 117.19369141 -185.94652344 118.44988281 -185.95117188 119.74414062 C-185.96290319 122.82947663 -185.979319 125.91471316 -186 129 C-184.68918457 129.05534912 -183.37836914 129.11069824 -182.02783203 129.16772461 C-177.1261763 129.37545752 -172.22468914 129.58696312 -167.32324219 129.79956055 C-165.20902796 129.89074612 -163.0947704 129.98093282 -160.98046875 130.07006836 C-157.92696148 130.19897822 -154.87363241 130.33157816 -151.8203125 130.46484375 C-150.88760529 130.50343002 -149.95489807 130.5420163 -148.993927 130.58177185 C-142.96728402 130.84934172 -136.99724698 131.35722494 -131 132 C-121.90024122 132.90258199 -114.58520623 132.95305825 -106.5 128.48046875 C-105.10063464 127.74433963 -103.70071395 127.0092654 -102.30029297 126.27514648 C-101.58967712 125.896716 -100.87906128 125.51828552 -100.14691162 125.12838745 C-96.70006112 123.31676986 -93.19887081 121.62047196 -89.6953125 119.921875 C-88.28620597 119.23496152 -86.87710776 118.548031 -85.46801758 117.86108398 C-84.02043418 117.15720599 -82.57275978 116.45351514 -81.125 115.75 C-80.37286224 115.38415802 -79.62072449 115.01831604 -78.84579468 114.64138794 C-68.88229834 109.79888424 -58.88269429 105.05469686 -48.8125 100.4375 C-47.235896 99.70575562 -47.235896 99.70575562 -45.62744141 98.95922852 C-40.53980286 96.59976171 -35.4526888 94.30292558 -30.23706055 92.23925781 C-23.778294 89.20265776 -20.03468408 86.47100961 -16.30078125 80.33203125 C-15.44191005 78.98414923 -14.58200357 77.63692647 -13.72119141 76.2902832 C-13.27825745 75.58763336 -12.83532349 74.88498352 -12.37896729 74.16104126 C-10.04721328 70.50684535 -7.60381565 66.92902826 -5.16796875 63.34375 C-4.17487636 61.87517163 -3.18203884 60.40642087 -2.18945312 58.9375 C-1.69582275 58.20789063 -1.20219238 57.47828125 -0.69360352 56.7265625 C0.8296448 54.47465382 2.35136826 52.22171958 3.87304688 49.96875 C4.85928325 48.51035462 5.84560811 47.05201906 6.83203125 45.59375 C7.2779512 44.93322632 7.72387115 44.27270264 8.18330383 43.59216309 C10.33412809 40.41606273 12.52059691 37.28201572 14.78955078 34.18896484 C17.12408198 31.26766831 17.12408198 31.26766831 17.53515625 28.3828125 C16.82515314 25.22148477 15.43819972 23.41858408 13.4375 20.875 C8.41867213 14.28723127 3.58207189 7.49452905 0 0 Z " fill="#960E16" transform="translate(801,35)"/>
<path d="M0 0 C1.28146884 1.04950115 2.56386823 2.09786828 3.84765625 3.14453125 C4.91985831 4.0331458 5.99149897 4.92243828 7.0625 5.8125 C7.61615234 6.26302734 8.16980469 6.71355469 8.74023438 7.17773438 C11.56853713 9.53866268 13.69020467 11.50992426 15 15 C13.75 16.5625 13.75 16.5625 12 18 C8.66961676 17.58020379 6.63995945 16.18202818 4 14.1875 C-4.30732743 8.22736124 -13.15040997 3.10609624 -22 -2 C-22.93585938 -2.54237305 -22.93585938 -2.54237305 -23.890625 -3.09570312 C-51.48625397 -18.79555279 -86.72161975 -25.4000935 -117.66821289 -17.33740234 C-131.99344577 -13.1906614 -146.13902337 -6.76836559 -157.5625 2.9375 C-160 5 -160 5 -162 5 C-162 5.66 -162 6.32 -162 7 C-163.33789063 8.26171875 -163.33789063 8.26171875 -165.15625 9.6875 C-168.87064329 12.77410851 -171.69250349 16.08766102 -174.5 20 C-174.97139404 20.65299072 -175.44278809 21.30598145 -175.9284668 21.97875977 C-186.60583352 37.13166942 -193.15215489 54.76247536 -196 73 C-196.20496094 74.17433594 -196.40992188 75.34867188 -196.62109375 76.55859375 C-198.10103139 86.53031151 -198.21124193 96.50090527 -198.25 106.5625 C-198.25526703 107.25470642 -198.26053406 107.94691284 -198.26596069 108.66009521 C-198.27801874 110.71239312 -198.27419839 112.76409946 -198.265625 114.81640625 C-198.26224121 116.60220093 -198.26224121 116.60220093 -198.25878906 118.42407227 C-197.8691946 125.31291087 -196.85582062 132.15343501 -196 139 C-235.27 139 -274.54 139 -315 139 C-312.70455124 116.04551239 -305.66351274 92.61958521 -295.01782227 72.10253906 C-293.94964925 69.89598929 -293.0768606 67.66664342 -292.20703125 65.375 C-290.09949869 60.06119819 -287.53644188 55.11033981 -284.75 50.125 C-284.26547363 49.25294922 -283.78094727 48.38089844 -283.28173828 47.48242188 C-279.5004736 40.74739573 -275.50634272 34.27992339 -271 28 C-270.31679688 27.04351562 -269.63359375 26.08703125 -268.9296875 25.1015625 C-255.5082314 6.77333751 -239.99066027 -10.22905957 -221.67773438 -23.75463867 C-220.49327197 -24.63385036 -219.31831154 -25.52593308 -218.15039062 -26.42700195 C-202.79191023 -38.21520873 -185.63289289 -47.24608879 -167.125 -52.875 C-166.45960205 -53.07859131 -165.7942041 -53.28218262 -165.10864258 -53.49194336 C-107.98476514 -69.76162549 -42.27890764 -35.46732882 0 0 Z " fill="#CC0202" transform="translate(405,248)"/>
<path d="M0 0 C-1.47530747 25.2382956 -3.03368662 50.47149262 -4.80529785 75.69088745 C-4.97675674 78.14683056 -5.14513298 80.60299082 -5.3104248 83.05935669 C-5.54330615 86.50639212 -5.78764979 89.95242544 -6.03515625 93.3984375 C-6.10281693 94.43059891 -6.1704776 95.46276031 -6.2401886 96.52619934 C-6.31053818 97.47065414 -6.38088776 98.41510895 -6.45336914 99.38818359 C-6.51093887 100.21079681 -6.56850861 101.03341003 -6.62782288 101.88095093 C-7 104 -7 104 -9 107 C-9.95261719 106.31292969 -10.90523437 105.62585938 -11.88671875 104.91796875 C-13.15357271 104.00771072 -14.42050388 103.09756015 -15.6875 102.1875 C-16.31333984 101.73568359 -16.93917969 101.28386719 -17.58398438 100.81835938 C-20.33110836 98.84790919 -23.02164124 96.98756415 -25.95703125 95.30078125 C-26.63121094 94.87152344 -27.30539062 94.44226563 -28 94 C-28 93.34 -28 92.68 -28 92 C-29.175625 91.5359375 -29.175625 91.5359375 -30.375 91.0625 C-33 90 -33 90 -35 89 C-35 88.34 -35 87.68 -35 87 C-35.67289063 86.7834375 -36.34578125 86.566875 -37.0390625 86.34375 C-40.93389893 84.57617252 -44.0141176 82.11942117 -47.375 79.5 C-52.74004646 75.39218319 -58.16105432 71.45463392 -63.8125 67.75 C-69.12506523 64.26597766 -74.30611865 60.65575804 -79.42578125 56.890625 C-82.10172464 54.92528873 -84.79277125 52.98451522 -87.5 51.0625 C-88.2940625 50.49660156 -89.088125 49.93070313 -89.90625 49.34765625 C-92.0494794 47.84597815 -92.0494794 47.84597815 -95 47 C-94.83564453 47.65129883 -94.67128906 48.30259766 -94.50195312 48.97363281 C-91.64196793 60.79723013 -89.62604241 72.77766902 -87.5 84.75 C-87.10576275 86.95578173 -86.7112334 89.16151128 -86.31640625 91.3671875 C-85.55495529 95.62371109 -84.7973881 99.88089668 -84.04296875 104.13867188 C-83.38944467 107.82427164 -82.7264045 111.50784261 -82.05078125 115.18945312 C-81.90878296 115.97080627 -81.76678467 116.75215942 -81.6204834 117.55718994 C-81.24908779 119.59885013 -80.87374268 121.6397908 -80.49804688 123.68066406 C-80.07093527 126.52723727 -79.89328182 129.13092272 -80 132 C-69.22476681 130.25840515 -59.2815814 127.67372543 -49 124 C-47.52229536 123.51634338 -46.04333683 123.03647997 -44.5625 122.5625 C-33.57930945 118.86702799 -23.1043053 114.80719657 -12.890625 109.3203125 C-10 108 -10 108 -6 108 C-5.195625 109.4540625 -5.195625 109.4540625 -4.375 110.9375 C-2.19842663 114.78173569 0.28084523 118.37783037 2.828125 121.984375 C4 124 4 124 4 127 C4.66 127 5.32 127 6 127 C6.35191406 127.67804688 6.70382812 128.35609375 7.06640625 129.0546875 C10.15200803 134.87140939 13.48662754 140.29050466 17.3203125 145.640625 C18.912149 147.87659999 20.44823702 150.13208726 21.9375 152.4375 C22.33839844 153.05496094 22.73929688 153.67242187 23.15234375 154.30859375 C24 156 24 156 24 159 C24.66 159 25.32 159 26 159 C26.53625 159.969375 27.0725 160.93875 27.625 161.9375 C29.37556349 164.97762449 31.18295727 167.97522816 33.0625 170.9375 C33.54847656 171.70964844 34.03445313 172.48179687 34.53515625 173.27734375 C35.01855469 173.84582031 35.50195312 174.41429687 36 175 C36.99 175 37.98 175 39 175 C38.67 176.32 38.34 177.64 38 179 C29.55533458 177.67831743 21.21554606 176.05352047 12.875 174.1875 C11.69284912 173.92469238 10.51069824 173.66188477 9.29272461 173.39111328 C1.93054769 171.72989899 -5.32791554 169.85882333 -12.57373047 167.75463867 C-18.73594165 165.9971415 -24.95195845 164.72969134 -31.24194336 163.52124023 C-37.69029616 162.27922897 -44.09769766 160.89825141 -50.5 159.4375 C-51.80662598 159.14069336 -51.80662598 159.14069336 -53.13964844 158.83789062 C-57.57804765 157.81946203 -62.00027023 156.75307023 -66.4140625 155.6328125 C-71.7580166 154.28737629 -77.12042434 153.03694263 -82.4921875 151.80859375 C-83.33360291 151.61605515 -84.17501831 151.42351654 -85.04193115 151.22514343 C-88.54213871 150.42514739 -92.04265673 149.62655126 -95.54394531 148.83129883 C-98.1314684 148.24303046 -100.71812444 147.65106685 -103.3046875 147.05859375 C-104.48138504 146.79289833 -104.48138504 146.79289833 -105.68185425 146.52183533 C-109.88251604 145.55693406 -113.91480834 144.38825457 -118 143 C-120.66694311 142.50268069 -123.32158879 142.04536473 -126 141.625 C-132.81450812 140.49602594 -139.26783536 138.90530907 -145.87890625 136.88671875 C-148.57330756 136.12122551 -151.11010534 135.64104167 -153.875 135.25 C-166.70709836 132.81486582 -179.67039325 124.63080143 -187.08984375 114.0078125 C-196.50491063 98.56633266 -194.60715974 83.9038359 -190.63208008 66.8972168 C-189.18651435 60.9541808 -187.48952247 55.25043059 -185.06640625 49.625 C-183.7086448 46.28281796 -182.60937483 42.86766505 -181.5 39.4375 C-179.92341377 34.6014009 -178.20830499 29.92803152 -176.03125 25.328125 C-174.22697949 21.25484763 -172.8144507 17.0237341 -171.34375 12.8203125 C-169.92925438 9.85151645 -168.77672448 8.68250678 -166 7 C-164.68808003 13.95214281 -164.88941942 20.88444903 -164.9375 27.9375 C-164.94201172 29.19369141 -164.94652344 30.44988281 -164.95117188 31.74414062 C-164.96290319 34.82947663 -164.979319 37.91471316 -165 41 C-163.68918457 41.05534912 -162.37836914 41.11069824 -161.02783203 41.16772461 C-156.1261763 41.37545752 -151.22468914 41.58696312 -146.32324219 41.79956055 C-144.20902796 41.89074612 -142.0947704 41.98093282 -139.98046875 42.07006836 C-136.92696148 42.19897822 -133.87363241 42.33157816 -130.8203125 42.46484375 C-129.88760529 42.50343002 -128.95489807 42.5420163 -127.993927 42.58177185 C-121.96728402 42.84934172 -115.99724698 43.35722494 -110 44 C-100.90024122 44.90258199 -93.58520623 44.95305825 -85.5 40.48046875 C-84.10063464 39.74433963 -82.70071395 39.0092654 -81.30029297 38.27514648 C-80.58967712 37.896716 -79.87906128 37.51828552 -79.14691162 37.12838745 C-75.70006109 35.31676985 -72.19887052 33.6204726 -68.6953125 31.921875 C-67.28604332 31.23487993 -65.87678234 30.54786803 -64.4675293 29.86083984 C-63.02010976 29.15704096 -61.57259812 28.45343148 -60.125 27.75 C-59.37352692 27.38449036 -58.62205383 27.01898071 -57.84780884 26.64239502 C-46.79205057 21.2691842 -35.68676294 16.0267574 -24.50439453 10.921875 C-17.69696373 7.80890164 -10.98530145 4.56166659 -4.34375 1.109375 C-2 0 -2 0 0 0 Z " fill="#9A0F17" transform="translate(780,123)"/>
<path d="M0 0 C4.45176935 4.21893622 7.54312694 8.45527797 8.36328125 14.69140625 C8.38549853 34.33148298 -3.09215585 48.36193746 -16.43359375 61.76953125 C-17.30371094 62.63578125 -18.17382812 63.50203125 -19.0703125 64.39453125 C-19.58505127 64.93295654 -20.09979004 65.47138184 -20.63012695 66.02612305 C-25.05873187 70.60372776 -29.80292015 74.45805451 -34.9453125 78.20703125 C-36.19368896 79.1182373 -36.19368896 79.1182373 -37.46728516 80.04785156 C-56.81292125 93.96848205 -78.1003878 104.31046212 -100.75390625 111.640625 C-102.96145592 112.35910238 -105.15668308 113.10713098 -107.3515625 113.86328125 C-126.39827502 120.30726306 -150.88392874 123.61984499 -170.0546875 116.01171875 C-176.0177235 112.81392483 -179.5639223 108.84241533 -183.0703125 103.14453125 C-185.97523126 92.2510859 -183.89544894 82.03788983 -178.3828125 72.39453125 C-175.00332599 67.06726188 -171.14865546 62.20007875 -167.0703125 57.39453125 C-166.3690625 56.55792969 -165.6678125 55.72132812 -164.9453125 54.859375 C-159.52795567 48.6003931 -153.59952133 43.46029672 -147.0703125 38.39453125 C-146.02529794 37.56082721 -144.98104475 36.72616807 -143.9375 35.890625 C-136.65395541 30.11017429 -129.10487574 25.09722585 -121.0703125 20.39453125 C-119.98234375 19.73710938 -118.894375 19.0796875 -117.7734375 18.40234375 C-89.30607706 1.54494367 -30.82845226 -23.90659222 0 0 Z " fill="#EC1723" transform="translate(802.0703125,42.60546875)"/>
<path d="M0 0 C6.88257288 0.35599515 12.45103218 2.13713466 18.8828125 4.55078125 C23.55777784 6.25233961 28.33211138 7.55142977 33.125 8.875 C54.06955155 14.74790772 73.85480435 20.67489743 88.4375 37.875 C94.95958496 50.91916993 94.70930977 65.81301961 90.265625 79.47265625 C89.84796875 80.63667969 89.4303125 81.80070312 89 83 C88.77505859 83.6379248 88.55011719 84.27584961 88.31835938 84.93310547 C85.35991808 93.2807184 81.99860975 101.41311917 78.44921875 109.52734375 C76.44556327 114.32855593 74.75126523 119.21210935 73.078125 124.13671875 C72 127 72 127 70 130 C68.94555413 133.23591081 68.02711392 136.49963922 67.09765625 139.7734375 C66 143 66 143 64.55859375 145.3515625 C62.79087763 148.35535079 61.84299349 151.29127323 60.79052734 154.59960938 C59.48678378 158.5583514 57.88727392 162.39287717 56.3125 166.25 C53.00004416 174.43759591 49.81068558 182.66540518 46.70239258 190.93261719 C45.17860105 194.97127773 43.60347922 198.96241496 41.87768555 202.92016602 C39.66153701 208.17172913 37.63732483 213.50385805 35.5625 218.8125 C32.70752881 226.10596891 29.848356 233.39685447 26.93139648 240.66577148 C25.34480969 244.64201167 23.79748617 248.63341551 22.25 252.625 C21.93417969 253.43839844 21.61835937 254.25179687 21.29296875 255.08984375 C20.5281932 257.05972017 19.76402948 259.0298341 19 261 C18.67 261 18.34 261 18 261 C17.85842558 254.63909325 18.32719012 248.744427 19.390625 242.48046875 C19.53519638 241.59222916 19.67976776 240.70398956 19.82872009 239.78883362 C20.13714211 237.89750596 20.44865024 236.00667932 20.76303101 234.11633301 C21.58678839 229.16191526 22.38808928 224.20385955 23.19140625 219.24609375 C23.35034866 218.26867218 23.50929108 217.29125061 23.67304993 216.28421021 C24.94150028 208.45186523 26.09859048 200.60948163 27.1875 192.75 C28.4144202 184.01038336 29.67775466 175.27867698 31.0625 166.5625 C31.21291748 165.56637695 31.36333496 164.57025391 31.51831055 163.54394531 C33.09001236 153.89246312 37.16482511 149.60460438 44.25 143.125 C55.00212949 133.23520677 55.00212949 133.23520677 64.75 122.375 C65.48734375 121.47523438 66.2246875 120.57546875 66.984375 119.6484375 C68.86167984 117.18174626 70.46555485 114.69013486 72 112 C64.98226737 109.14044096 57.82936765 107.34715754 50.47265625 105.56640625 C49.15708145 105.24437831 47.84160792 104.92193645 46.52622986 104.59910583 C43.07331392 103.75293215 39.6189686 102.91274271 36.16430664 102.07373047 C33.38892471 101.39866371 30.61457037 100.71943346 27.84026527 100.03995705 C15.01187866 96.89809902 2.18187761 93.76549387 -10.68969727 90.80444336 C-14.16013482 89.96108531 -17.57290416 89.00340558 -21 88 C-17.90377822 82.18677068 -14.56599603 76.75616059 -10.6875 71.4375 C-4.76249715 63.18667991 0.8769831 54.75897828 6.47973633 46.28686523 C7.12450928 45.31305908 7.76928223 44.33925293 8.43359375 43.3359375 C9.04315918 42.41135742 9.65272461 41.48677734 10.28076172 40.53417969 C11.77856884 38.32639242 13.34821752 36.21612869 14.97265625 34.1015625 C17.11987985 31.23237184 17.11987985 31.23237184 17.53515625 28.3828125 C16.82515314 25.22148477 15.43819972 23.41858408 13.4375 20.875 C8.41867213 14.28723127 3.58207189 7.49452905 0 0 Z " fill="#EA1722" transform="translate(801,35)"/>
<path d="M0 0 C9.714375 -0.061875 19.42875 -0.12375 29.4375 -0.1875 C34.01322876 -0.22846802 34.01322876 -0.22846802 38.68139648 -0.27026367 C41.11962489 -0.27903172 43.55785771 -0.2866749 45.99609375 -0.29296875 C47.87028992 -0.3159906 47.87028992 -0.3159906 49.78234863 -0.33947754 C62.31885277 -0.34321198 72.24954179 2.97836928 81.703125 11.54296875 C84.73982296 14.95468062 86.41073166 18.76195109 88 23 C88.34804688 23.88558594 88.69609375 24.77117187 89.0546875 25.68359375 C91.95388113 35.85473172 90.90865498 47.59155971 86.609375 57.15625 C82.5130297 64.39445238 77.833302 69.30307023 70.078125 72.44140625 C68 73 68 73 64 73 C70.3194962 80.62506886 77.40362862 87.4837215 84.4375 94.4375 C86.81403372 96.78752611 89.18728084 99.14080107 91.55859375 101.49609375 C92.10535263 102.03455429 92.65211151 102.57301483 93.21543884 103.12779236 C94.49589058 104.39974996 95.75087218 105.6972673 97 107 C97 107.33 97 107.66 97 108 C56.59101025 110.95160852 56.59101025 110.95160852 47.828125 104.4609375 C44.4721992 101.15455785 41.79646576 97.51283917 39.58105469 93.35522461 C37.22255891 89.84188169 33.99216316 86.99216316 31 84 C30.67 91.92 30.34 99.84 30 108 C20.1 108 10.2 108 0 108 C0 72.36 0 36.72 0 0 Z " fill="#CD0505" transform="translate(271,279)"/>
<path d="M0 0 C1.44780098 -0.0149778 1.44780098 -0.0149778 2.92485046 -0.03025818 C4.9595412 -0.04538916 6.99430579 -0.05248553 9.02905273 -0.05200195 C12.11764171 -0.05855328 15.20299582 -0.11305997 18.29101562 -0.16992188 C37.0540274 -0.32834619 37.0540274 -0.32834619 44.82421875 6.50390625 C45.75234375 7.08140625 46.68046875 7.65890625 47.63671875 8.25390625 C55.90400838 16.75740415 55.50473398 26.54657031 55.35286903 37.67325211 C55.33954725 38.6099461 55.32622547 39.54664009 55.3125 40.51171875 C55.30316077 42.44797854 55.29604991 44.38425024 55.2910614 46.32052612 C55.27207893 51.3875051 55.22305457 56.45375393 55.1675415 61.52044678 C55.11615914 66.70233283 55.09350699 71.88433823 55.06835938 77.06640625 C55.01492627 87.21261005 54.92706301 97.35808287 54.82421875 107.50390625 C45.58421875 107.50390625 36.34421875 107.50390625 26.82421875 107.50390625 C26.82421875 101.23390625 26.82421875 94.96390625 26.82421875 88.50390625 C17.58421875 88.50390625 8.34421875 88.50390625 -1.17578125 88.50390625 C-1.17578125 94.77390625 -1.17578125 101.04390625 -1.17578125 107.50390625 C-10.74578125 107.50390625 -20.31578125 107.50390625 -30.17578125 107.50390625 C-30.2663777 96.59400288 -30.33966729 85.68435195 -30.38302994 74.77415657 C-30.40384846 69.70736773 -30.43206075 64.64085102 -30.47753906 59.57421875 C-30.52120209 54.67883528 -30.54496144 49.78371253 -30.55529022 44.88814926 C-30.56264501 43.02634455 -30.57700678 41.16455309 -30.59870148 39.30286026 C-30.82847594 18.75623349 -30.82847594 18.75623349 -24.0625 9.6640625 C-23.33675781 8.97183594 -22.61101562 8.27960938 -21.86328125 7.56640625 C-20.78626953 6.50099609 -20.78626953 6.50099609 -19.6875 5.4140625 C-13.37156881 0.61081156 -7.70341401 0.02805088 0 0 Z " fill="#CD0303" transform="translate(405.17578125,279.49609375)"/>
<path d="M0 0 C1.04077698 0.00007553 2.08155396 0.00015106 3.15386963 0.00022888 C4.27066101 0.00539017 5.38745239 0.01055145 6.53808594 0.01586914 C7.68662048 0.01728409 8.83515503 0.01869904 10.01849365 0.02015686 C13.68650925 0.02575396 17.35446379 0.03830596 21.02246094 0.05102539 C23.50943922 0.05604076 25.99641846 0.06060361 28.48339844 0.06469727 C34.57979505 0.07487149 40.67605965 0.09444764 46.77246094 0.11352539 C46.77246094 9.02352539 46.77246094 17.93352539 46.77246094 27.11352539 C30.60246094 27.11352539 14.43246094 27.11352539 -2.22753906 27.11352539 C-2.22753906 31.40352539 -2.22753906 35.69352539 -2.22753906 40.11352539 C-0.23851562 40.0787207 1.75050781 40.04391602 3.79980469 40.00805664 C5.75592923 39.98717275 7.71205671 39.96640445 9.66821289 39.94873047 C11.6699067 39.92647081 13.67140368 39.88832393 15.67285156 39.84985352 C25.68644702 39.77418403 33.78079955 40.68544993 41.77246094 47.11352539 C49.64914532 55.02344473 51.13404563 60.79376481 51.14746094 71.80102539 C51.17195312 72.83936523 51.19644531 73.87770508 51.22167969 74.94750977 C51.25325073 83.34014449 49.60411857 90.69393734 44.45996094 97.48852539 C36.95980611 104.81425801 28.03789716 107.45560554 17.78540039 107.45341492 C16.66738037 107.43793106 15.54936035 107.4224472 14.39746094 107.40649414 C13.23239014 107.4022493 12.06731934 107.39800446 10.86694336 107.39363098 C7.16854129 107.37692189 3.47069659 107.339283 -0.22753906 107.30102539 C-2.74445824 107.28596856 -5.26138602 107.27228191 -7.77832031 107.26000977 C-13.92844415 107.22960375 -20.07737227 107.17086465 -26.22753906 107.11352539 C-26.22753906 97.87352539 -26.22753906 88.63352539 -26.22753906 79.11352539 C-9.72753906 79.11352539 6.77246094 79.11352539 23.77246094 79.11352539 C23.77246094 74.82352539 23.77246094 70.53352539 23.77246094 66.11352539 C21.79503906 66.15993164 19.81761719 66.20633789 17.78027344 66.25415039 C15.83074979 66.28200073 13.88122088 66.30969492 11.93164062 66.33325195 C9.94081616 66.36288016 7.95034386 66.41374865 5.95996094 66.46508789 C-3.77204826 66.56339101 -11.67177295 65.61102183 -19.04003906 58.86352539 C-20.55957031 57.28540039 -20.55957031 57.28540039 -22.22753906 55.11352539 C-22.65333252 54.59781982 -23.07912598 54.08211426 -23.51782227 53.55078125 C-28.04866053 47.40633006 -27.94648697 41.60518682 -27.79003906 34.17602539 C-27.80099609 33.04745117 -27.81195312 31.91887695 -27.82324219 30.75610352 C-27.75233934 22.63063685 -26.41498234 16.4303192 -21.55175781 9.84399414 C-15.06803833 3.73165716 -9.10404142 -0.02209719 0 0 Z " fill="#CD0303" transform="translate(624.2275390625,279.886474609375)"/>
<path d="M0 0 C1.31191997 6.95214281 1.11058058 13.88444903 1.0625 20.9375 C1.05798828 22.19369141 1.05347656 23.44988281 1.04882812 24.74414062 C1.03709681 27.82947663 1.020681 30.91471316 1 34 C2.84839478 34.07516846 2.84839478 34.07516846 4.73413086 34.15185547 C49.83889319 36.00086026 49.83889319 36.00086026 71 38 C66.15632418 45.71487818 61.14166144 53.29349197 56 60.8125 C54.87776125 62.45803261 53.75552307 64.1035656 52.6333313 65.74913025 C51.495412 67.41714836 50.35669943 69.08462226 49.21777344 70.75195312 C47.12464748 73.81744716 45.03433848 76.88483598 42.9453125 79.953125 C37.3527908 88.16603764 31.7522897 96.37336248 26.125 104.5625 C25.47108276 105.51624512 25.47108276 105.51624512 24.80395508 106.48925781 C22.66808631 109.59907625 20.51349365 112.69312675 18.32421875 115.765625 C17.90060059 116.36431396 17.47698242 116.96300293 17.04052734 117.57983398 C15.89299871 119.1989216 14.73779879 120.81256456 13.58203125 122.42578125 C11.73820379 124.92240214 11.73820379 124.92240214 12 128 C-2.62072561 124.38446265 -15.07819698 116.96888928 -23 103.875 C-32.14272794 86.79423298 -27.09951194 67.74555438 -22 50 C-21.10198012 47.49708515 -20.11809804 45.06657466 -19.06640625 42.625 C-17.7086448 39.28281796 -16.60937483 35.86766505 -15.5 32.4375 C-13.92358275 27.60191922 -12.20466058 22.93063621 -10.03515625 18.328125 C-8.22010655 14.24597548 -6.76071994 10.02153792 -5.24609375 5.8203125 C-2.67451524 0 -2.67451524 0 0 0 Z " fill="#F16561" transform="translate(614,130)"/>
<path d="M0 0 C-1.47530747 25.2382956 -3.03368662 50.47149262 -4.80529785 75.69088745 C-4.97675674 78.14683056 -5.14513298 80.60299082 -5.3104248 83.05935669 C-5.54330615 86.50639212 -5.78764979 89.95242544 -6.03515625 93.3984375 C-6.10281693 94.43059891 -6.1704776 95.46276031 -6.2401886 96.52619934 C-6.31053818 97.47065414 -6.38088776 98.41510895 -6.45336914 99.38818359 C-6.51093887 100.21079681 -6.56850861 101.03341003 -6.62782288 101.88095093 C-7 104 -7 104 -9 107 C-9.95261719 106.31292969 -10.90523437 105.62585938 -11.88671875 104.91796875 C-13.15357271 104.00771072 -14.42050388 103.09756015 -15.6875 102.1875 C-16.62625977 101.50977539 -16.62625977 101.50977539 -17.58398438 100.81835938 C-20.33110836 98.84790919 -23.02164124 96.98756415 -25.95703125 95.30078125 C-26.63121094 94.87152344 -27.30539062 94.44226563 -28 94 C-28 93.34 -28 92.68 -28 92 C-29.175625 91.5359375 -29.175625 91.5359375 -30.375 91.0625 C-33 90 -33 90 -35 89 C-35 88.34 -35 87.68 -35 87 C-35.67289063 86.7834375 -36.34578125 86.566875 -37.0390625 86.34375 C-40.93389893 84.57617252 -44.0141176 82.11942117 -47.375 79.5 C-52.74004725 75.39218259 -58.16106592 71.45465071 -63.8125 67.75 C-69.05565554 64.31129827 -74.16705001 60.75037714 -79.21484375 57.02734375 C-84.40474258 53.24956325 -89.70886111 49.63397774 -95 46 C-90.24410798 41.56531201 -84.55695613 39.34532848 -78.6875 36.75 C-76.49386762 35.76246671 -74.30115719 34.77288291 -72.109375 33.78125 C-71.04912109 33.30171875 -69.98886719 32.8221875 -68.89648438 32.328125 C-64.76033894 30.43157821 -60.70518672 28.40272527 -56.64892578 26.34082031 C-44.19623165 20.03446727 -31.57899268 14.04937376 -19 8 C-17.9987207 7.51805176 -16.99744141 7.03610352 -15.96582031 6.53955078 C-13.54209786 5.37543892 -11.11577034 4.21708815 -8.6875 3.0625 C-8.01340088 2.73894531 -7.33930176 2.41539063 -6.64477539 2.08203125 C-2.23406317 0 -2.23406317 0 0 0 Z " fill="#EB1723" transform="translate(780,123)"/>
<path d="M0 0 C10.23 0 20.46 0 31 0 C31 26.07 31 52.14 31 79 C44.53 79 58.06 79 72 79 C72 88.24 72 97.48 72 107 C48.24 107 24.48 107 0 107 C0 71.69 0 36.38 0 0 Z " fill="#CD0606" transform="translate(516,280)"/>
<path d="M0 0 C10.38257007 7.54394765 17.50861046 14.97482654 19.62890625 27.91015625 C21.36156984 45.67555448 15.63606627 61.27712954 7.62890625 76.91015625 C6.96890625 76.91015625 6.30890625 76.91015625 5.62890625 76.91015625 C5.52578125 77.65265625 5.42265625 78.39515625 5.31640625 79.16015625 C4.57956828 82.10750815 3.68091483 83.69398699 1.62890625 85.91015625 C0.96890625 85.91015625 0.30890625 85.91015625 -0.37109375 85.91015625 C-0.37109375 85.25015625 -0.37109375 84.59015625 -0.37109375 83.91015625 C-1.03109375 83.91015625 -1.69109375 83.91015625 -2.37109375 83.91015625 C-2.37109375 82.92015625 -2.37109375 81.93015625 -2.37109375 80.91015625 C-3.03109375 80.91015625 -3.69109375 80.91015625 -4.37109375 80.91015625 C-5.8230374 79.02962683 -7.1847398 77.07878776 -8.49609375 75.09765625 C-9.22054687 74.01871094 -9.945 72.93976563 -10.69140625 71.828125 C-12.37109375 68.91015625 -12.37109375 68.91015625 -12.37109375 65.91015625 C-13.03109375 65.91015625 -13.69109375 65.91015625 -14.37109375 65.91015625 C-15.92002244 63.81912176 -17.33892972 61.7319737 -18.73828125 59.54296875 C-19.16948273 58.88077835 -19.6006842 58.21858795 -20.04495239 57.53633118 C-21.45165198 55.37330233 -22.84874307 53.20423371 -24.24609375 51.03515625 C-25.20494007 49.55816256 -26.16457607 48.08168122 -27.125 46.60571289 C-29.01777659 43.6962597 -30.90786055 40.78508883 -32.79589844 37.87255859 C-35.95306556 33.00784953 -39.15049731 28.17058176 -42.37109375 23.34765625 C-42.81952637 22.67299316 -43.26795898 21.99833008 -43.72998047 21.30322266 C-44.14779785 20.67722168 -44.56561523 20.0512207 -44.99609375 19.40625 C-45.3828125 18.82343262 -45.76953125 18.24061523 -46.16796875 17.64013672 C-47.01414752 16.42341132 -47.90428911 15.23667461 -48.82421875 14.07470703 C-52.40840958 9.49477088 -52.40840958 9.49477088 -52.18359375 5.97265625 C-51.91546875 5.29203125 -51.64734375 4.61140625 -51.37109375 3.91015625 C-43.99751874 1.94107656 -36.61144082 0.32850795 -29.10571289 -1.02783203 C-25.47899295 -1.68500821 -21.89047528 -2.40937928 -18.30859375 -3.27734375 C-10.8038469 -4.90573222 -6.45444505 -4.16829047 0 0 Z " fill="#960E16" transform="translate(874.37109375,59.08984375)"/>
<path d="M0 0 C10.23 0 20.46 0 31 0 C31 35.31 31 70.62 31 107 C20.77 107 10.54 107 0 107 C0 71.69 0 36.38 0 0 Z " fill="#CD0606" transform="translate(473,280)"/>
<path d="M0 0 C0.53625 0.969375 1.0725 1.93875 1.625 2.9375 C3.80157337 6.78173569 6.28084523 10.37783037 8.828125 13.984375 C10 16 10 16 10 19 C10.66 19 11.32 19 12 19 C12.35191406 19.67804688 12.70382812 20.35609375 13.06640625 21.0546875 C16.15200803 26.87140939 19.48662754 32.29050466 23.3203125 37.640625 C24.912149 39.87659999 26.44823702 42.13208726 27.9375 44.4375 C28.33839844 45.05496094 28.73929688 45.67242187 29.15234375 46.30859375 C30 48 30 48 30 51 C30.66 51 31.32 51 32 51 C32.53625 51.969375 33.0725 52.93875 33.625 53.9375 C35.37556349 56.97762449 37.18295727 59.97522816 39.0625 62.9375 C39.79146484 64.09572266 39.79146484 64.09572266 40.53515625 65.27734375 C41.01855469 65.84582031 41.50195312 66.41429687 42 67 C42.99 67 43.98 67 45 67 C44.505 68.98 44.505 68.98 44 71 C36.94090922 69.87723429 29.96156852 68.62436599 23 67 C23.99 66.34 24.98 65.68 26 65 C24.80117188 64.54560547 24.80117188 64.54560547 23.578125 64.08203125 C22.47984375 63.66308594 21.3815625 63.24414062 20.25 62.8125 C18.64898438 62.20341797 18.64898438 62.20341797 17.015625 61.58203125 C13.85313301 60.35538018 10.72763353 59.05091029 7.6015625 57.734375 C0.59046024 54.80090276 -6.49089907 52.06103097 -13.58023071 49.32388306 C-26.35250284 44.39043477 -39.10126657 39.40120172 -51.8125 34.3125 C-52.74990021 33.93773026 -52.74990021 33.93773026 -53.70623779 33.5553894 C-59.83414156 31.10408547 -65.9508711 28.64042269 -72 26 C-72 25.34 -72 24.68 -72 24 C-71.07703125 23.78085938 -70.1540625 23.56171875 -69.203125 23.3359375 C-52.98087916 19.42080553 -37.19916129 14.9654693 -22 8 C-20.8346875 7.50242188 -19.669375 7.00484375 -18.46875 6.4921875 C-14.4443749 4.7609811 -10.50060396 2.88218492 -6.55078125 0.98828125 C-4 0 -4 0 0 0 Z " fill="#EF635F" transform="translate(774,231)"/>
<path d="M0 0 C1.41479274 8.00536892 1.37146908 16.10914179 1.60546875 24.21679688 C1.64285156 25.38404297 1.68023438 26.55128906 1.71875 27.75390625 C1.74904297 28.80908447 1.77933594 29.8642627 1.81054688 30.95141602 C2.00171377 34.0275772 2.46810305 36.96643962 3 40 C3.1732695 42.58529089 3.32210956 45.16230794 3.4375 47.75 C3.74342098 54.38913611 4.41542569 60.95718222 5.16755676 67.55802917 C6.15923768 76.29888286 7.02053804 85.05121395 7.85986328 93.80786133 C8.12781197 96.59171497 8.40180991 99.37493654 8.67578125 102.15820312 C8.84932935 103.96090182 9.02251962 105.76363501 9.1953125 107.56640625 C9.31714401 108.79007652 9.31714401 108.79007652 9.44143677 110.03846741 C9.94452287 115.38238966 10.06903792 120.63213422 10 126 C-2.08523809 124.17935174 -10.72386829 119.08189371 -19 110 C-28.28363014 96.82820742 -29.35259408 85.0842315 -26.6953125 69.49609375 C-24.8671877 60.30411795 -22.78539262 51.25888208 -19.06640625 42.625 C-17.7086448 39.28281796 -16.60937483 35.86766505 -15.5 32.4375 C-13.92358275 27.60191922 -12.20466058 22.93063621 -10.03515625 18.328125 C-8.22010655 14.24597548 -6.76071994 10.02153792 -5.24609375 5.8203125 C-2.67451524 0 -2.67451524 0 0 0 Z " fill="#9A0F17" transform="translate(614,130)"/>
<path d="M0 0 C0.495 0.99 0.495 0.99 1 2 C0.20528337 4.1152608 -0.68891859 6.19338765 -1.625 8.25 C-4.39916415 14.45284242 -6.73486763 20.69962707 -8.921875 27.13671875 C-10 30 -10 30 -12 33 C-13.05444587 36.23591081 -13.97288608 39.49963922 -14.90234375 42.7734375 C-16 46 -16 46 -17.44140625 48.3515625 C-19.20912237 51.35535079 -20.15700651 54.29127323 -21.20947266 57.59960938 C-22.51321622 61.5583514 -24.11272608 65.39287717 -25.6875 69.25 C-28.99995584 77.43759591 -32.18931442 85.66540518 -35.29760742 93.93261719 C-36.82139895 97.97127773 -38.39652078 101.96241496 -40.12231445 105.92016602 C-42.33846299 111.17172913 -44.36267517 116.50385805 -46.4375 121.8125 C-49.29247119 129.10596891 -52.151644 136.39685447 -55.06860352 143.66577148 C-56.65519031 147.64201167 -58.20251383 151.63341551 -59.75 155.625 C-60.06582031 156.43839844 -60.38164063 157.25179687 -60.70703125 158.08984375 C-61.4718068 160.05972017 -62.23597052 162.0298341 -63 164 C-63.33 164 -63.66 164 -64 164 C-64.14157442 157.63909325 -63.67280988 151.744427 -62.609375 145.48046875 C-62.46480362 144.59222916 -62.32023224 143.70398956 -62.17127991 142.78883362 C-61.86285789 140.89750596 -61.55134976 139.00667932 -61.23696899 137.11633301 C-60.41321161 132.16191526 -59.61191072 127.20385955 -58.80859375 122.24609375 C-58.64965134 121.26867218 -58.49070892 120.29125061 -58.32695007 119.28421021 C-57.05849972 111.45186523 -55.90140952 103.60948163 -54.8125 95.75 C-53.5855798 87.01038336 -52.32224534 78.27867698 -50.9375 69.5625 C-50.78708252 68.56637695 -50.63666504 67.57025391 -50.48168945 66.54394531 C-48.90998764 56.89246312 -44.83517489 52.60460438 -37.75 46.125 C-26.97837864 36.22064131 -26.97837864 36.22064131 -17.25 25.3125 C-16.51265625 24.40113281 -15.7753125 23.48976562 -15.015625 22.55078125 C-13.75496844 20.95541549 -12.52933826 19.33098795 -11.359375 17.66796875 C-10.68648437 16.84232422 -10.68648437 16.84232422 -10 16 C-9.34 16 -8.68 16 -8 16 C-7.81630859 15.14148438 -7.81630859 15.14148438 -7.62890625 14.265625 C-6.97237132 11.90046809 -6.06276488 9.92793203 -4.9375 7.75 C-4.57527344 7.04359375 -4.21304688 6.3371875 -3.83984375 5.609375 C-3.56269531 5.07828125 -3.28554688 4.5471875 -3 4 C-2.34 4 -1.68 4 -1 4 C-0.67 2.68 -0.34 1.36 0 0 Z " fill="#EA1924" transform="translate(883,132)"/>
<path d="M0 0 C2.13992361 2.03133742 3.83077216 4.07234902 5.4453125 6.5390625 C5.88230469 7.20164062 6.31929687 7.86421875 6.76953125 8.546875 C7.21683594 9.23265625 7.66414062 9.9184375 8.125 10.625 C10.79655424 15.02995999 10.79655424 15.02995999 14 19 C14.66155737 22.714369 13.93742408 24.10204141 11.9375 27.36328125 C10.96861397 28.68727243 9.98854732 30.00312344 9 31.3125 C7.89395908 32.8258086 6.79128274 34.34158017 5.69140625 35.859375 C5.09602051 36.67986328 4.50063477 37.50035156 3.88720703 38.34570312 C-0.20648459 44.10335064 -4.05730972 50.02749833 -7.95117188 55.92114258 C-9.23981751 57.86721646 -10.53982155 59.80580677 -11.84985352 61.73754883 C-13.43089122 64.13648227 -14.91248788 66.53001965 -16.36694336 69.00268555 C-23.00516269 79.93507023 -29.81000242 84.73598546 -41.4375 89.6875 C-42.98869233 90.38883467 -44.53790649 91.09455953 -46.08520508 91.80444336 C-49.20886956 93.22977061 -52.341699 94.6303432 -55.48632812 96.00878906 C-59.66806377 97.84461329 -63.81636184 99.74493037 -67.953125 101.6796875 C-68.87574379 102.11105263 -68.87574379 102.11105263 -69.81700134 102.5511322 C-70.720541 102.97381126 -70.720541 102.97381126 -71.64233398 103.4050293 C-75.08565065 105.01488239 -78.53622759 106.60820614 -81.98828125 108.19921875 C-86.98965099 110.51624191 -91.94968305 112.90075398 -96.875 115.375 C-97.80650879 115.83724976 -97.80650879 115.83724976 -98.75683594 116.30883789 C-101.72264974 117.79375415 -104.62095887 119.34839617 -107.47265625 121.0390625 C-116.86600347 126.35525224 -124.53612983 126.78150269 -135 126 C-137.25253745 125.85313973 -139.50514746 125.70739002 -141.7578125 125.5625 C-146.73878617 125.23295475 -151.71713558 124.87702296 -156.6953125 124.5078125 C-164.22475481 123.96248813 -171.75534889 123.60515642 -179.29956055 123.34204102 C-180.54539917 123.29454712 -180.54539917 123.29454712 -181.81640625 123.24609375 C-182.53256104 123.22216553 -183.24871582 123.1982373 -183.98657227 123.17358398 C-186.07807982 122.99326849 -187.98061557 122.56290943 -190 122 C-190.02505615 121.22922119 -190.0501123 120.45844238 -190.07592773 119.66430664 C-190.19285494 116.13024164 -190.31513823 112.59638084 -190.4375 109.0625 C-190.47681641 107.85013672 -190.51613281 106.63777344 -190.55664062 105.38867188 C-190.7861147 98.87513852 -191.17004815 92.46525519 -192 86 C-191.34 86 -190.68 86 -190 86 C-189.67 87.65 -189.34 89.3 -189 91 C-188.01 90.01 -188.01 90.01 -187 89 C-186.97421875 89.70125 -186.9484375 90.4025 -186.921875 91.125 C-186.42000462 99.51992269 -184.61456039 106.76888319 -178.09765625 112.61328125 C-165.75483718 120.772873 -151.1406343 119.73005254 -137 119 C-136.29375488 118.9705127 -135.58750977 118.94102539 -134.85986328 118.91064453 C-104.25085296 117.35643801 -68.46156008 99.78699797 -44 82 C-42.99839844 81.28199219 -41.99679687 80.56398438 -40.96484375 79.82421875 C-32.34723916 73.51626293 -24.51131085 66.58140085 -17 59 C-16.22140625 58.23042969 -15.4428125 57.46085937 -14.640625 56.66796875 C-3.4892117 45.09746639 4.53514804 31.71419518 4.328125 15.359375 C3.88522205 10.82489242 2.72239309 8.60316732 0 5 C-0.99 3.515 -0.99 3.515 -2 2 C-1.34 2 -0.68 2 0 2 C0 1.34 0 0.68 0 0 Z " fill="#FCF1F1" transform="translate(805,42)"/>
<path d="M0 0 C0.72832031 -0.00064453 1.45664062 -0.00128906 2.20703125 -0.00195312 C2.95339844 0.01802734 3.69976562 0.03800781 4.46875 0.05859375 C5.21511719 0.05150391 5.96148437 0.04441406 6.73046875 0.03710938 C11.30718126 0.08976182 14.30255862 0.45880759 17.96875 3.49609375 C18.53637695 6.4987793 18.53637695 6.4987793 18.45703125 10.1328125 C18.44091797 11.43154297 18.42480469 12.73027344 18.40820312 14.06835938 C18.36642609 15.44012074 18.32410135 16.81186552 18.28125 18.18359375 C18.25616745 19.56701757 18.23335418 20.95048452 18.21289062 22.33398438 C18.15386914 25.7218175 18.0641884 29.10909089 17.96875 32.49609375 C9.05875 32.49609375 0.14875 32.49609375 -9.03125 32.49609375 C-9.16590658 27.91178527 -9.26523429 23.33141126 -9.34375 18.74609375 C-9.38564453 17.44414062 -9.42753906 16.1421875 -9.47070312 14.80078125 C-9.48681641 13.55039062 -9.50292969 12.3 -9.51953125 11.01171875 C-9.54571533 9.85961914 -9.57189941 8.70751953 -9.59887695 7.52050781 C-9.03125 4.49609375 -9.03125 4.49609375 -6.75268555 2.11987305 C-4.15455321 0.56966418 -2.95167353 -0.00836065 0 0 Z " fill="#FEFAFA" transform="translate(413.03125,304.50390625)"/>
<path d="M0 0 C6.88257288 0.35599515 12.45103218 2.13713466 18.8828125 4.55078125 C23.5576372 6.25228842 28.33179237 7.55296339 33.125 8.875 C43.59194967 11.77859836 53.79314303 15.29439564 64 19 C64 19.33 64 19.66 64 20 C41.88599658 24.89775181 41.88599658 24.89775181 31.9375 26.8125 C30.72964844 27.04582031 29.52179687 27.27914062 28.27734375 27.51953125 C25.12947588 27.98101844 22.17583855 28.09184312 19 28 C18.67 28.66 18.34 29.32 18 30 C17.76796875 29.32582031 17.5359375 28.65164062 17.296875 27.95703125 C15.66410992 24.23413016 13.53030574 21.04141108 11.25 17.6875 C10.58218506 16.69327026 10.58218506 16.69327026 9.90087891 15.67895508 C7.48523957 12.10543857 5.00392602 8.6088774 2.375 5.1875 C0 2 0 2 0 0 Z " fill="#F16764" transform="translate(801,35)"/>
<path d="M0 0 C5.7853125 -0.1546875 5.7853125 -0.1546875 11.6875 -0.3125 C13.4986731 -0.38078003 13.4986731 -0.38078003 15.34643555 -0.45043945 C23.04387942 -0.55035603 23.04387942 -0.55035603 25.85009766 1.06494141 C29.34776871 4.49213042 30.22176173 7.44779557 30.4375 12.1875 C30.49808594 13.10917969 30.55867188 14.03085937 30.62109375 14.98046875 C29.68865009 19.5136697 27.89797372 22.42540402 24 25 C19.83014396 25.84347092 15.85698602 25.66255721 11.625 25.4375 C7.78875 25.293125 3.9525 25.14875 0 25 C0 16.75 0 8.5 0 0 Z " fill="#FDF4F4" transform="translate(300,306)"/>
<path d="M0 0 C-0.62617926 3.53581498 -1.55002973 6.74900765 -2.8203125 10.10546875 C-3.18729248 11.08016113 -3.55427246 12.05485352 -3.93237305 13.05908203 C-4.52272339 14.60764893 -4.52272339 14.60764893 -5.125 16.1875 C-5.52952393 17.25597168 -5.93404785 18.32444336 -6.35083008 19.42529297 C-7.56228753 22.61876643 -8.78009247 25.80974619 -10 29 C-10.33402832 29.87640137 -10.66805664 30.75280273 -11.01220703 31.65576172 C-14.7850595 41.53893017 -18.7480928 51.31250446 -23 61 C-23.99 61 -24.98 61 -26 61 C-30.64428973 48.22820325 -27.49500824 33.73181572 -24 21 C-23.34 21 -22.68 21 -22 21 C-21.34 19.68 -20.68 18.36 -20 17 C-19.34 17 -18.68 17 -18 17 C-18 16.34 -18 15.68 -18 15 C-16.53125 13.5546875 -16.53125 13.5546875 -14.5 11.875 C-10.6500766 8.62106119 -7.13935665 5.15227282 -3.6640625 1.50390625 C-2 0 -2 0 0 0 Z " fill="#951119" transform="translate(614,167)"/>
<path d="M0 0 C4.6281237 27.52515673 4.6281237 27.52515673 -0.24804688 37.57128906 C-3.47142429 41.96807148 -7.37045473 45.16752757 -12 48 C-12.66 48 -13.32 48 -14 48 C-14.66 49.32 -15.32 50.64 -16 52 C-16.66 52 -17.32 52 -18 52 C-18 52.66 -18 53.32 -18 54 C-19.62626404 55.38232443 -21.2925002 56.71937515 -23 58 C-22.58584266 52.4088759 -21.36221259 48.04878174 -19.171875 42.90625 C-17.78490395 39.4665618 -16.63907013 35.96450556 -15.5 32.4375 C-13.92379494 27.60185116 -12.20465168 22.93061732 -10.03515625 18.328125 C-8.22010655 14.24597548 -6.76071994 10.02153792 -5.24609375 5.8203125 C-2.67451524 0 -2.67451524 0 0 0 Z " fill="#F16965" transform="translate(614,130)"/>
<path d="M0 0 C5.98551772 1.50170462 11.61255621 2.94226163 17 6 C15 12 13 18 11 24 C6.88756685 23.55541263 3.09868515 22.48613569 -0.8125 21.1875 C-1.76769531 20.87167969 -2.72289063 20.55585938 -3.70703125 20.23046875 C-6 19 -6 19 -6.93359375 17.1015625 C-7.01343341 14.57487209 -6.48321305 13.38136814 -5.25 11.1875 C-3.2712567 7.52545077 -1.60076987 3.84184769 0 0 Z " fill="#CF0C0C" transform="translate(87,308)"/>
<path d="M0 0 C1.73017508 0.45451184 3.45909877 0.91378857 5.1875 1.375 C6.15042969 1.63023437 7.11335937 1.88546875 8.10546875 2.1484375 C9.06066406 2.42945313 10.01585937 2.71046875 11 3 C12.36125 3.30164063 12.36125 3.30164063 13.75 3.609375 C16 5 16 5 17.14453125 8.5546875 C17.39012146 9.99105837 17.61196368 11.43164938 17.8125 12.875 C17.93302734 13.59558594 18.05355469 14.31617188 18.17773438 15.05859375 C18.72017263 18.42481056 19 21.58364956 19 25 C4.73728655 21.14205292 4.73728655 21.14205292 1 18 C-0.24968316 14.12048908 -0.10337651 10.23427487 -0.0625 6.1875 C-0.05347656 5.02605469 -0.04445312 3.86460937 -0.03515625 2.66796875 C-0.02355469 1.78753906 -0.01195312 0.90710938 0 0 Z " fill="#CF0E0E" transform="translate(214,357)"/>
<path d="M0 0 C0.66 0 1.32 0 2 0 C2 0.66 2 1.32 2 2 C2.8353125 2.37125 2.8353125 2.37125 3.6875 2.75 C6.39971127 4.21606015 8.63587365 6.02989471 11 8 C10.68853528 9.89600369 10.37578283 11.79179587 10.0625 13.6875 C9.88847656 14.74324219 9.71445313 15.79898437 9.53515625 16.88671875 C9.06832879 19.60249604 8.55577384 22.30124235 8 25 C3.21701436 23.55061041 -1.04323369 21.07859823 -4 17 C-4.91039208 11.13664147 -2.22029488 5.30940079 0 0 Z " fill="#D00F10" transform="translate(220,302)"/>
<path d="M0 0 C2.35944422 1.2011716 3.86620978 2.62464196 5.68359375 4.546875 C6.2971875 5.18753906 6.91078125 5.82820312 7.54296875 6.48828125 C8.001875 6.98199219 8.46078125 7.47570312 8.93359375 7.984375 C7.5238267 11.02290205 5.84489147 13.5783345 3.80859375 16.234375 C3.26976562 16.94078125 2.7309375 17.6471875 2.17578125 18.375 C1.76585937 18.90609375 1.3559375 19.4371875 0.93359375 19.984375 C-2.33245388 19.38596009 -4.24047332 18.3254672 -6.75390625 16.171875 C-7.35589844 15.67042969 -7.95789063 15.16898438 -8.578125 14.65234375 C-10.36124544 12.65393843 -11.026301 11.68145288 -11.06640625 8.984375 C-9.3359375 6.58984375 -9.3359375 6.58984375 -6.87890625 4.171875 C-6.08097656 3.36105469 -5.28304687 2.55023438 -4.4609375 1.71484375 C-2.06640625 -0.015625 -2.06640625 -0.015625 0 0 Z " fill="#CF0A0A" transform="translate(140.06640625,238.015625)"/>
<path d="M0 0 C1.32421875 1.609375 1.32421875 1.609375 2.6875 3.75 C3.14511719 4.44609375 3.60273438 5.1421875 4.07421875 5.859375 C5 8 5 8 4.828125 10 C3.8471539 12.36913775 2.61044159 14.20626294 1.0625 16.25 C0.53785156 16.95640625 0.01320312 17.6628125 -0.52734375 18.390625 C-1.01332031 18.92171875 -1.49929687 19.4528125 -2 20 C-2.66 20 -3.32 20 -4 20 C-5.54296875 18.171875 -5.54296875 18.171875 -7.1875 15.75 C-7.73792969 14.96109375 -8.28835937 14.1721875 -8.85546875 13.359375 C-10 11 -10 11 -9.890625 8.9375 C-8.79292678 6.54952493 -7.4441215 5.08076687 -5.5625 3.25 C-4.94503906 2.63640625 -4.32757813 2.0228125 -3.69140625 1.390625 C-2 0 -2 0 0 0 Z " fill="#CF0D0D" transform="translate(248,260)"/>
<path d="M0 0 C3.45787154 1.61562285 4.27661429 4.48845037 5.84765625 7.86328125 C4.7039557 11.29438289 3.98262316 11.77824689 1.03515625 13.67578125 C0.34808594 14.13597656 -0.33898437 14.59617188 -1.046875 15.0703125 C-3.15234375 15.86328125 -3.15234375 15.86328125 -5.2734375 15.18359375 C-8.06798508 13.21985761 -9.47363816 10.80101603 -11.15234375 7.86328125 C-11.15234375 6.87328125 -11.15234375 5.88328125 -11.15234375 4.86328125 C-9.74483154 3.99411238 -8.32589165 3.14342976 -6.90234375 2.30078125 C-6.1134375 1.82511719 -5.32453125 1.34945312 -4.51171875 0.859375 C-2.15234375 -0.13671875 -2.15234375 -0.13671875 0 0 Z " fill="#CF0D0D" transform="translate(200.15234375,192.13671875)"/>
<path d="M0 0 C10.71428571 -0.28571429 10.71428571 -0.28571429 15 2 C15 4.97 15 7.94 15 11 C10.05 10.67 5.1 10.34 0 10 C0 6.7 0 3.4 0 0 Z " fill="#D21717" transform="translate(323,233)"/>
<path d="M0 0 C1.95903745 0.47627975 3.91721097 0.95611423 5.875 1.4375 C6.96554687 1.70433594 8.05609375 1.97117188 9.1796875 2.24609375 C12 3 12 3 14 4 C14 7.63 14 11.26 14 15 C4.5 12.25 4.5 12.25 0 10 C0 6.7 0 3.4 0 0 Z " fill="#D00E0E" transform="translate(324,186)"/>
<path d="M0 0 C1.61989062 3.54351073 2.10414268 6.12719419 2 10 C0.39850114 10.67305018 -1.20631029 11.33822227 -2.8125 12 C-3.70582031 12.37125 -4.59914063 12.7425 -5.51953125 13.125 C-8 14 -8 14 -11 14 C-12.62950412 9.87831311 -13.26264601 7.29299643 -12 3 C-10.56445975 2.49440092 -9.1264798 1.9957251 -7.6875 1.5 C-6.88699219 1.2215625 -6.08648437 0.943125 -5.26171875 0.65625 C-3 0 -3 0 0 0 Z " fill="#D00D0E" transform="translate(289,237)"/>
<path d="M0 0 C4.95 0 9.9 0 15 0 C17 5 17 5 17 9 C12.38 9 7.76 9 3 9 C0 3 0 3 0 0 Z " fill="#D11314" transform="translate(252,177)"/>
<path d="M0 0 C0.66 0 1.32 0 2 0 C2.33 1.65 2.66 3.3 3 5 C3.66 4.34 4.32 3.68 5 3 C5.0270043 4.45823212 5.04639787 5.91660675 5.0625 7.375 C5.07410156 8.18710938 5.08570313 8.99921875 5.09765625 9.8359375 C5 12 5 12 4 14 C3.84824451 15.59262066 3.75099675 17.19064856 3.68359375 18.7890625 C3.64169922 19.73007813 3.59980469 20.67109375 3.55664062 21.640625 C3.49766602 23.11789063 3.49766602 23.11789063 3.4375 24.625 C3.39431641 25.61757812 3.35113281 26.61015625 3.30664062 27.6328125 C3.20039053 30.08837033 3.09967545 32.54416651 3 35 C9.93 35.495 9.93 35.495 17 36 C17 36.33 17 36.66 17 37 C15.25008666 37.02715383 13.50005055 37.04646551 11.75 37.0625 C10.77546875 37.07410156 9.8009375 37.08570313 8.796875 37.09765625 C6.32513755 37.01135257 4.36653536 36.6403827 2 36 C1.97494385 35.22922119 1.9498877 34.45844238 1.92407227 33.66430664 C1.80714506 30.13024164 1.68486177 26.59638084 1.5625 23.0625 C1.52318359 21.85013672 1.48386719 20.63777344 1.44335938 19.38867188 C1.2138853 12.87513852 0.82995185 6.46525519 0 0 Z " fill="#F4C3C3" transform="translate(613,128)"/>
<path d="M0 0 C0.33 0.66 0.66 1.32 1 2 C1.66 2.33 2.32 2.66 3 3 C1.57512189 5.34193802 0.13630077 7.67293396 -1.3125 10 C-1.71662109 10.66773437 -2.12074219 11.33546875 -2.53710938 12.0234375 C-3.6113438 13.73522569 -4.79941276 15.37433438 -6 17 C-8 17 -10 17 -12 17 C-11.46890625 16.35933594 -10.9378125 15.71867187 -10.390625 15.05859375 C-6.43738036 10.21803326 -2.89239543 5.5437579 0 0 Z " fill="#F9E1E1" transform="translate(804,80)"/>
<path d="M0 0 C0.66 0.33 1.32 0.66 2 1 C-4.93 7.93 -11.86 14.86 -19 22 C-19 17.83256273 -16.7220201 16.1175327 -14 13.25 C-13.50395264 12.71793945 -13.00790527 12.18587891 -12.49682617 11.63769531 C-8.56892151 7.476431 -4.4406485 3.61359362 0 0 Z " fill="#ED363F" transform="translate(652,83)"/>
<path d="M0 0 C0.66 0.33 1.32 0.66 2 1 C-3.61 6.61 -9.22 12.22 -15 18 C-15.66 17.67 -16.32 17.34 -17 17 C-15.38150935 15.16053461 -13.75581169 13.32848583 -12.125 11.5 C-11.66480469 10.97535156 -11.20460937 10.45070313 -10.73046875 9.91015625 C-9.52827924 8.56858245 -8.26754054 7.28000815 -7 6 C-6.34 6 -5.68 6 -5 6 C-5 5.34 -5 4.68 -5 4 C-3.37373596 2.61767557 -1.7074998 1.28062485 0 0 Z " fill="#F7D3D3" transform="translate(248,249)"/>
<path d="M0 0 C0.66 0.33 1.32 0.66 2 1 C2 1.99 2 2.98 2 4 C-3.75 7 -3.75 7 -6 7 C-6 6.34 -6 5.68 -6 5 C-6.66 4.67 -7.32 4.34 -8 4 C-6.71349294 3.30289269 -5.42059335 2.61757124 -4.125 1.9375 C-3.40570312 1.55464844 -2.68640625 1.17179688 -1.9453125 0.77734375 C-1.30335938 0.52082031 -0.66140625 0.26429688 0 0 Z " fill="#FAE5E6" transform="translate(734,140)"/>
<path d="M0 0 C2.2477975 2.05233685 3.0022242 3.00667261 4 6 C3.34 6.66 2.68 7.32 2 8 C0.68 6.02 -0.64 4.04 -2 2 C-1.34 2 -0.68 2 0 2 C0 1.34 0 0.68 0 0 Z " fill="#F7D5D5" transform="translate(805,42)"/>
</svg>
